<?xml version="1.0" standalone="no"?>
<!DOCTYPE svg PUBLIC "-//W3C//DTD SVG 20010904//EN"
 "http://www.w3.org/TR/2001/REC-SVG-20010904/DTD/svg10.dtd">
<svg version="1.0" xmlns="http://www.w3.org/2000/svg"
 width="512.000000pt" height="512.000000pt" viewBox="0 0 512.000000 512.000000"
 preserveAspectRatio="xMidYMid meet">
<metadata>
Created by potrace 1.14, written by Peter Selinger 2001-2017
</metadata>
<g transform="translate(0.000000,512.000000) scale(0.100000,-0.100000)"
fill="#000000" stroke="none">
<path d="M3308 4645 c-2 -2 -27 -6 -57 -10 -30 -4 -64 -10 -75 -15 -12 -4 -24
-8 -29 -9 -58 -8 -157 -44 -263 -97 -300 -150 -495 -413 -549 -739 -7 -46 -8
-248 -1 -283 5 -21 2 -23 -17 -19 -12 3 -62 13 -112 22 -257 47 -519 138 -753
262 -73 39 -304 188 -338 219 -12 10 -36 30 -55 44 -122 92 -284 255 -447 451
-83 99 -98 114 -108 100 -6 -9 -43 -77 -82 -151 -110 -211 -152 -360 -157
-565 -5 -173 22 -317 91 -476 31 -73 31 -76 11 -71 -12 3 -33 11 -47 19 -39
20 -50 16 -51 -19 -1 -18 -3 -53 -6 -78 -24 -276 30 -500 175 -722 28 -42 66
-93 84 -115 63 -72 64 -73 28 -63 -24 7 -31 6 -27 -3 2 -7 19 -57 36 -112 18
-55 36 -109 41 -120 4 -11 20 -50 35 -87 84 -208 246 -398 443 -520 46 -29 85
-54 87 -57 6 -11 -374 -150 -770 -283 l-394 -132 72 -39 c266 -146 338 -183
512 -262 116 -52 355 -137 452 -160 10 -3 36 -9 58 -14 60 -15 202 -39 270
-46 33 -3 69 -8 80 -10 140 -27 712 -27 920 1 93 12 284 46 335 59 30 8 66 16
80 19 39 8 158 43 240 72 276 97 520 234 750 420 133 108 321 327 424 493 111
180 214 422 261 617 36 147 60 280 70 379 3 33 8 78 12 100 3 22 7 164 8 315
3 378 -19 320 289 740 98 135 203 278 233 318 l54 73 -138 -6 c-76 -3 -155 -8
-175 -10 -21 -2 -38 -3 -38 -1 0 3 16 50 118 343 l71 202 -37 -14 c-20 -7 -89
-32 -152 -55 -63 -23 -213 -75 -334 -116 l-219 -74 -71 54 c-149 112 -332 190
-511 219 -76 13 -317 21 -327 12z m292 -309 c14 -4 38 -9 54 -11 15 -3 44 -12
62 -20 19 -8 34 -12 34 -9 0 10 148 -71 198 -110 154 -117 187 -131 287 -123
33 3 95 17 138 31 43 14 81 26 86 26 4 0 -20 -80 -54 -177 -35 -98 -59 -180
-55 -183 5 -3 40 -5 79 -4 39 0 71 -1 71 -3 0 -2 -26 -39 -58 -81 -83 -110
-127 -186 -156 -272 -37 -113 -39 -124 -41 -410 -2 -326 -6 -369 -50 -620 -59
-340 -236 -693 -473 -945 -99 -105 -320 -285 -350 -285 -6 0 -12 -4 -14 -8 -2
-7 -184 -112 -193 -112 -2 0 -36 -15 -77 -34 -173 -80 -502 -172 -686 -192
-30 -3 -64 -8 -75 -10 -134 -25 -709 -25 -867 0 -14 3 -47 7 -75 11 -27 4 -66
8 -85 11 -19 2 -42 6 -50 9 -8 2 -33 7 -54 11 -89 13 -406 118 -406 134 0 4
12 11 27 15 30 7 359 129 408 150 168 74 463 208 569 258 72 35 192 92 268
127 75 36 135 66 134 67 -3 3 -145 14 -376 28 -253 15 -322 25 -425 60 -150
52 -294 158 -389 288 l-27 37 33 1 c18 0 40 2 48 4 107 21 203 45 470 120 8 2
59 17 113 31 54 15 94 30 90 34 -5 3 -30 12 -58 18 -227 53 -481 116 -533 132
-202 62 -379 205 -484 390 -22 40 -78 170 -78 183 0 3 17 1 38 -3 55 -13 140
-24 262 -35 36 -3 83 -8 105 -10 42 -5 115 -12 205 -21 30 -3 73 -7 94 -10
l40 -6 -50 39 c-27 22 -123 97 -214 167 -319 247 -437 409 -483 659 -16 85
-15 260 2 315 5 17 7 32 4 32 -4 0 -3 3 0 7 4 3 48 -34 99 -83 154 -148 347
-296 521 -398 116 -68 330 -176 349 -176 8 0 18 -4 24 -9 36 -34 407 -144 589
-175 148 -25 259 -38 443 -51 l83 -6 -6 63 c-10 105 -24 191 -41 264 -18 80
-21 237 -5 306 46 198 177 367 362 466 73 39 223 90 296 101 61 9 261 7 303
-3z"/>
</g>
</svg>
